# MagicaVoxel @ Ephtracy

# group
o 

# material
mtllib Tree2-0.mtl
usemtl palette

# normals
vn -1 0 0
vn 1 0 0
vn 0 0 1
vn 0 0 -1
vn 0 -1 0
vn 0 1 0

# texcoords
vt 0.224609 0.5
vt 0.595703 0.5

# verts
v -0.6 0.8 0.1
v -0.6 0.8 -0.1
v -0.6 0.9 0.2
v -0.6 0.9 0.1
v -0.6 0.9 -0.1
v -0.6 0.9 -0.2
v -0.6 1 0.2
v -0.6 1 0.1
v -0.6 1 -0.1
v -0.6 1 -0.2
v -0.6 1.1 0.1
v -0.6 1.1 -0.1
v -0.5 0.8 0.2
v -0.5 0.8 0.1
v -0.5 0.8 -0.1
v -0.5 0.8 -0.2
v -0.5 0.9 0.2
v -0.5 0.9 0.1
v -0.5 0.9 -0.1
v -0.5 0.9 -0.2
v -0.5 1 0.2
v -0.5 1 0.1
v -0.5 1 -0.1
v -0.5 1 -0.2
v -0.5 1.1 0.2
v -0.5 1.1 0.1
v -0.5 1.1 -0.1
v -0.5 1.1 -0.2
v -0.4 0.5 0.1
v -0.4 0.5 0
v -0.4 0.8 0.1
v -0.4 0.8 0
v -0.2 1.3 0.8
v -0.2 1.3 0.5
v -0.2 1.4 0.9
v -0.2 1.4 0.8
v -0.2 1.4 0.5
v -0.2 1.4 0.4
v -0.2 1.5 0.9
v -0.2 1.5 0.8
v -0.2 1.5 0.5
v -0.2 1.5 0.4
v -0.2 1.6 0.8
v -0.2 1.6 0.5
v -0.0999999 1.1 -0.2
v -0.0999999 1.1 -0.5
v -0.0999999 1.2 -0.1
v -0.0999999 1.2 -0.2
v -0.0999999 1.2 -0.5
v -0.0999999 1.2 -0.6
v -0.0999999 1.3 0.9
v -0.0999999 1.3 0.8
v -0.0999999 1.3 0.5
v -0.0999999 1.3 0.4
v -0.0999999 1.3 -0.1
v -0.0999999 1.3 -0.2
v -0.0999999 1.3 -0.5
v -0.0999999 1.3 -0.6
v -0.0999999 1.4 0.9
v -0.0999999 1.4 0.8
v -0.0999999 1.4 0.5
v -0.0999999 1.4 0.4
v -0.0999999 1.4 -0.2
v -0.0999999 1.4 -0.5
v -0.0999999 1.5 0.9
v -0.0999999 1.5 0.8
v -0.0999999 1.5 0.5
v -0.0999999 1.5 0.4
v -0.0999999 1.6 0.9
v -0.0999999 1.6 0.8
v -0.0999999 1.6 0.5
v -0.0999999 1.6 0.4
v 5.96046e-008 0 0.1
v 5.96046e-008 0 0
v 5.96046e-008 0.5 0.1
v 5.96046e-008 0.5 0
v 5.96046e-008 0.6 0.1
v 5.96046e-008 0.6 0
v 5.96046e-008 0.7 0
v 5.96046e-008 0.7 -0.4
v 5.96046e-008 0.8 0.6
v 5.96046e-008 0.8 0.1
v 5.96046e-008 0.8 0
v 5.96046e-008 0.8 -0.3
v 5.96046e-008 0.9 0.5
v 5.96046e-008 0.9 0.1
v 5.96046e-008 1 0.1
v 5.96046e-008 1 0
v 5.96046e-008 1.1 -0.1
v 5.96046e-008 1.1 -0.2
v 5.96046e-008 1.1 -0.3
v 5.96046e-008 1.1 -0.4
v 5.96046e-008 1.1 -0.5
v 5.96046e-008 1.1 -0.6
v 5.96046e-008 1.2 0.5
v 5.96046e-008 1.2 0.4
v 5.96046e-008 1.2 -0.1
v 5.96046e-008 1.2 -0.2
v 5.96046e-008 1.2 -0.5
v 5.96046e-008 1.2 -0.6
v 5.96046e-008 1.3 0.6
v 5.96046e-008 1.3 0.4
v 5.96046e-008 1.3 -0.1
v 5.96046e-008 1.3 -0.2
v 5.96046e-008 1.3 -0.5
v 5.96046e-008 1.3 -0.6
v 5.96046e-008 1.4 -0.1
v 5.96046e-008 1.4 -0.2
v 5.96046e-008 1.4 -0.5
v 5.96046e-008 1.4 -0.6
v -0.4 0.8 0.2
v -0.4 0.8 0.1
v -0.4 0.8 -0.1
v -0.4 0.8 -0.2
v -0.4 0.9 0.2
v -0.4 0.9 0.1
v -0.4 0.9 -0.1
v -0.4 0.9 -0.2
v -0.4 1 0.2
v -0.4 1 0.1
v -0.4 1 -0.1
v -0.4 1 -0.2
v -0.4 1.1 0.2
v -0.4 1.1 0.1
v -0.4 1.1 -0.1
v -0.4 1.1 -0.2
v -0.3 0.6 0.1
v -0.3 0.6 0
v -0.3 0.8 0.1
v -0.3 0.8 0
v -0.3 0.8 -0.1
v -0.3 0.9 0.2
v -0.3 0.9 0.1
v -0.3 0.9 -0.1
v -0.3 0.9 -0.2
v -0.3 1 0.2
v -0.3 1 0.1
v -0.3 1 -0.1
v -0.3 1 -0.2
v -0.3 1.1 0.1
v -0.3 1.1 -0.1
v 0.1 0.7 0
v 0.1 0.7 -0.4
v 0.1 0.8 0.6
v 0.1 0.8 0.1
v 0.1 0.8 0
v 0.1 0.8 -0.3
v 0.1 0.9 0.5
v 0.1 0.9 0.1
v 0.1 1.1 -0.3
v 0.1 1.1 -0.4
v 0.1 1.2 0.5
v 0.1 1.2 0.4
v 0.1 1.3 0.6
v 0.1 1.3 0.4
v 0.2 0 0.1
v 0.2 0 0
v 0.2 1 0.1
v 0.2 1 0
v 0.2 1.3 0.9
v 0.2 1.3 0.8
v 0.2 1.3 0.5
v 0.2 1.3 0.4
v 0.2 1.4 0.9
v 0.2 1.4 0.8
v 0.2 1.4 0.5
v 0.2 1.4 0.4
v 0.2 1.5 0.9
v 0.2 1.5 0.8
v 0.2 1.5 0.5
v 0.2 1.5 0.4
v 0.2 1.6 0.9
v 0.2 1.6 0.8
v 0.2 1.6 0.5
v 0.2 1.6 0.4
v 0.3 1.1 -0.1
v 0.3 1.1 -0.2
v 0.3 1.1 -0.5
v 0.3 1.1 -0.6
v 0.3 1.2 -0.1
v 0.3 1.2 -0.2
v 0.3 1.2 -0.5
v 0.3 1.2 -0.6
v 0.3 1.3 0.8
v 0.3 1.3 0.5
v 0.3 1.3 -0.1
v 0.3 1.3 -0.2
v 0.3 1.3 -0.5
v 0.3 1.3 -0.6
v 0.3 1.4 0.9
v 0.3 1.4 0.8
v 0.3 1.4 0.5
v 0.3 1.4 0.4
v 0.3 1.4 -0.1
v 0.3 1.4 -0.2
v 0.3 1.4 -0.5
v 0.3 1.4 -0.6
v 0.3 1.5 0.9
v 0.3 1.5 0.8
v 0.3 1.5 0.5
v 0.3 1.5 0.4
v 0.3 1.6 0.8
v 0.3 1.6 0.5
v 0.4 1.1 -0.2
v 0.4 1.1 -0.5
v 0.4 1.2 -0.1
v 0.4 1.2 -0.2
v 0.4 1.2 -0.5
v 0.4 1.2 -0.6
v 0.4 1.3 -0.1
v 0.4 1.3 -0.2
v 0.4 1.3 -0.5
v 0.4 1.3 -0.6
v 0.4 1.4 -0.2
v 0.4 1.4 -0.5
v -0.2 1.4 0.9
v -0.2 1.5 0.9
v -0.0999999 1.3 0.9
v -0.0999999 1.4 0.9
v -0.0999999 1.5 0.9
v -0.0999999 1.6 0.9
v 0.2 1.3 0.9
v 0.2 1.4 0.9
v 0.2 1.5 0.9
v 0.2 1.6 0.9
v 0.3 1.4 0.9
v 0.3 1.5 0.9
v -0.2 1.3 0.8
v -0.2 1.4 0.8
v -0.2 1.5 0.8
v -0.2 1.6 0.8
v -0.0999999 1.3 0.8
v -0.0999999 1.4 0.8
v -0.0999999 1.5 0.8
v -0.0999999 1.6 0.8
v 0.2 1.3 0.8
v 0.2 1.4 0.8
v 0.2 1.5 0.8
v 0.2 1.6 0.8
v 0.3 1.3 0.8
v 0.3 1.4 0.8
v 0.3 1.5 0.8
v 0.3 1.6 0.8
v 5.96046e-008 0.8 0.6
v 5.96046e-008 1.3 0.6
v 0.1 0.8 0.6
v 0.1 1.3 0.6
v -0.6 0.9 0.2
v -0.6 1 0.2
v -0.5 0.8 0.2
v -0.5 0.9 0.2
v -0.5 1 0.2
v -0.5 1.1 0.2
v -0.4 0.8 0.2
v -0.4 0.9 0.2
v -0.4 1 0.2
v -0.4 1.1 0.2
v -0.3 0.9 0.2
v -0.3 1 0.2
v -0.6 0.8 0.1
v -0.6 0.9 0.1
v -0.6 1 0.1
v -0.6 1.1 0.1
v -0.5 0.8 0.1
v -0.5 0.9 0.1
v -0.5 1 0.1
v -0.5 1.1 0.1
v -0.4 0.5 0.1
v -0.4 0.8 0.1
v -0.4 0.9 0.1
v -0.4 1 0.1
v -0.4 1.1 0.1
v -0.3 0.6 0.1
v -0.3 0.8 0.1
v -0.3 0.9 0.1
v -0.3 1 0.1
v -0.3 1.1 0.1
v 5.96046e-008 0 0.1
v 5.96046e-008 0.5 0.1
v 5.96046e-008 0.6 0.1
v 5.96046e-008 0.8 0.1
v 5.96046e-008 0.9 0.1
v 5.96046e-008 1 0.1
v 0.1 0.8 0.1
v 0.1 0.9 0.1
v 0.2 0 0.1
v 0.2 1 0.1
v -0.0999999 1.2 -0.1
v -0.0999999 1.3 -0.1
v 5.96046e-008 1.1 -0.1
v 5.96046e-008 1.2 -0.1
v 5.96046e-008 1.3 -0.1
v 5.96046e-008 1.4 -0.1
v 0.3 1.1 -0.1
v 0.3 1.2 -0.1
v 0.3 1.3 -0.1
v 0.3 1.4 -0.1
v 0.4 1.2 -0.1
v 0.4 1.3 -0.1
v -0.0999999 1.1 -0.2
v -0.0999999 1.2 -0.2
v -0.0999999 1.3 -0.2
v -0.0999999 1.4 -0.2
v 5.96046e-008 1.1 -0.2
v 5.96046e-008 1.2 -0.2
v 5.96046e-008 1.3 -0.2
v 5.96046e-008 1.4 -0.2
v 0.3 1.1 -0.2
v 0.3 1.2 -0.2
v 0.3 1.3 -0.2
v 0.3 1.4 -0.2
v 0.4 1.1 -0.2
v 0.4 1.2 -0.2
v 0.4 1.3 -0.2
v 0.4 1.4 -0.2
v 5.96046e-008 0.8 -0.3
v 5.96046e-008 1.1 -0.3
v 0.1 0.8 -0.3
v 0.1 1.1 -0.3
v -0.2 1.3 0.5
v -0.2 1.4 0.5
v -0.2 1.5 0.5
v -0.2 1.6 0.5
v -0.0999999 1.3 0.5
v -0.0999999 1.4 0.5
v -0.0999999 1.5 0.5
v -0.0999999 1.6 0.5
v 5.96046e-008 0.9 0.5
v 5.96046e-008 1.2 0.5
v 0.1 0.9 0.5
v 0.1 1.2 0.5
v 0.2 1.3 0.5
v 0.2 1.4 0.5
v 0.2 1.5 0.5
v 0.2 1.6 0.5
v 0.3 1.3 0.5
v 0.3 1.4 0.5
v 0.3 1.5 0.5
v 0.3 1.6 0.5
v -0.2 1.4 0.4
v -0.2 1.5 0.4
v -0.0999999 1.3 0.4
v -0.0999999 1.4 0.4
v -0.0999999 1.5 0.4
v -0.0999999 1.6 0.4
v 5.96046e-008 1.2 0.4
v 5.96046e-008 1.3 0.4
v 0.1 1.2 0.4
v 0.1 1.3 0.4
v 0.2 1.3 0.4
v 0.2 1.4 0.4
v 0.2 1.5 0.4
v 0.2 1.6 0.4
v 0.3 1.4 0.4
v 0.3 1.5 0.4
v -0.4 0.5 0
v -0.4 0.8 0
v -0.3 0.6 0
v -0.3 0.8 0
v 5.96046e-008 0 0
v 5.96046e-008 0.5 0
v 5.96046e-008 0.6 0
v 5.96046e-008 0.7 0
v 5.96046e-008 0.8 0
v 5.96046e-008 1 0
v 0.1 0.7 0
v 0.1 0.8 0
v 0.2 0 0
v 0.2 1 0
v -0.6 0.8 -0.1
v -0.6 0.9 -0.1
v -0.6 1 -0.1
v -0.6 1.1 -0.1
v -0.5 0.8 -0.1
v -0.5 0.9 -0.1
v -0.5 1 -0.1
v -0.5 1.1 -0.1
v -0.4 0.8 -0.1
v -0.4 0.9 -0.1
v -0.4 1 -0.1
v -0.4 1.1 -0.1
v -0.3 0.8 -0.1
v -0.3 0.9 -0.1
v -0.3 1 -0.1
v -0.3 1.1 -0.1
v -0.6 0.9 -0.2
v -0.6 1 -0.2
v -0.5 0.8 -0.2
v -0.5 0.9 -0.2
v -0.5 1 -0.2
v -0.5 1.1 -0.2
v -0.4 0.8 -0.2
v -0.4 0.9 -0.2
v -0.4 1 -0.2
v -0.4 1.1 -0.2
v -0.3 0.9 -0.2
v -0.3 1 -0.2
v 5.96046e-008 0.7 -0.4
v 5.96046e-008 1.1 -0.4
v 0.1 0.7 -0.4
v 0.1 1.1 -0.4
v -0.0999999 1.1 -0.5
v -0.0999999 1.2 -0.5
v -0.0999999 1.3 -0.5
v -0.0999999 1.4 -0.5
v 5.96046e-008 1.1 -0.5
v 5.96046e-008 1.2 -0.5
v 5.96046e-008 1.3 -0.5
v 5.96046e-008 1.4 -0.5
v 0.3 1.1 -0.5
v 0.3 1.2 -0.5
v 0.3 1.3 -0.5
v 0.3 1.4 -0.5
v 0.4 1.1 -0.5
v 0.4 1.2 -0.5
v 0.4 1.3 -0.5
v 0.4 1.4 -0.5
v -0.0999999 1.2 -0.6
v -0.0999999 1.3 -0.6
v 5.96046e-008 1.1 -0.6
v 5.96046e-008 1.2 -0.6
v 5.96046e-008 1.3 -0.6
v 5.96046e-008 1.4 -0.6
v 0.3 1.1 -0.6
v 0.3 1.2 -0.6
v 0.3 1.3 -0.6
v 0.3 1.4 -0.6
v 0.4 1.2 -0.6
v 0.4 1.3 -0.6
v 5.96046e-008 0 0.1
v 0.2 0 0.1
v 5.96046e-008 0 0
v 0.2 0 0
v -0.4 0.5 0.1
v 5.96046e-008 0.5 0.1
v -0.4 0.5 0
v 5.96046e-008 0.5 0
v 5.96046e-008 0.7 0
v 0.1 0.7 0
v 5.96046e-008 0.7 -0.4
v 0.1 0.7 -0.4
v 5.96046e-008 0.8 0.6
v 0.1 0.8 0.6
v -0.5 0.8 0.2
v -0.4 0.8 0.2
v -0.6 0.8 0.1
v -0.5 0.8 0.1
v -0.4 0.8 0.1
v 5.96046e-008 0.8 0.1
v 0.1 0.8 0.1
v -0.4 0.8 0
v -0.3 0.8 0
v -0.6 0.8 -0.1
v -0.5 0.8 -0.1
v -0.4 0.8 -0.1
v -0.3 0.8 -0.1
v -0.5 0.8 -0.2
v -0.4 0.8 -0.2
v -0.6 0.9 0.2
v -0.5 0.9 0.2
v -0.4 0.9 0.2
v -0.3 0.9 0.2
v -0.6 0.9 0.1
v -0.5 0.9 0.1
v -0.4 0.9 0.1
v -0.3 0.9 0.1
v -0.6 0.9 -0.1
v -0.5 0.9 -0.1
v -0.4 0.9 -0.1
v -0.3 0.9 -0.1
v -0.6 0.9 -0.2
v -0.5 0.9 -0.2
v -0.4 0.9 -0.2
v -0.3 0.9 -0.2
v 5.96046e-008 1.1 -0.1
v 0.3 1.1 -0.1
v -0.0999999 1.1 -0.2
v 5.96046e-008 1.1 -0.2
v 0.3 1.1 -0.2
v 0.4 1.1 -0.2
v 5.96046e-008 1.1 -0.3
v 0.1 1.1 -0.3
v 5.96046e-008 1.1 -0.4
v 0.1 1.1 -0.4
v -0.0999999 1.1 -0.5
v 5.96046e-008 1.1 -0.5
v 0.3 1.1 -0.5
v 0.4 1.1 -0.5
v 5.96046e-008 1.1 -0.6
v 0.3 1.1 -0.6
v 5.96046e-008 1.2 0.5
v 0.1 1.2 0.5
v 5.96046e-008 1.2 0.4
v 0.1 1.2 0.4
v -0.0999999 1.2 -0.1
v 5.96046e-008 1.2 -0.1
v 0.3 1.2 -0.1
v 0.4 1.2 -0.1
v -0.0999999 1.2 -0.2
v 5.96046e-008 1.2 -0.2
v 0.3 1.2 -0.2
v 0.4 1.2 -0.2
v -0.0999999 1.2 -0.5
v 5.96046e-008 1.2 -0.5
v 0.3 1.2 -0.5
v 0.4 1.2 -0.5
v -0.0999999 1.2 -0.6
v 5.96046e-008 1.2 -0.6
v 0.3 1.2 -0.6
v 0.4 1.2 -0.6
v -0.0999999 1.3 0.9
v 0.2 1.3 0.9
v -0.2 1.3 0.8
v -0.0999999 1.3 0.8
v 0.2 1.3 0.8
v 0.3 1.3 0.8
v 5.96046e-008 1.3 0.6
v 0.1 1.3 0.6
v -0.2 1.3 0.5
v -0.0999999 1.3 0.5
v 0.2 1.3 0.5
v 0.3 1.3 0.5
v -0.0999999 1.3 0.4
v 5.96046e-008 1.3 0.4
v 0.1 1.3 0.4
v 0.2 1.3 0.4
v -0.2 1.4 0.9
v -0.0999999 1.4 0.9
v 0.2 1.4 0.9
v 0.3 1.4 0.9
v -0.2 1.4 0.8
v -0.0999999 1.4 0.8
v 0.2 1.4 0.8
v 0.3 1.4 0.8
v -0.2 1.4 0.5
v -0.0999999 1.4 0.5
v 0.2 1.4 0.5
v 0.3 1.4 0.5
v -0.2 1.4 0.4
v -0.0999999 1.4 0.4
v 0.2 1.4 0.4
v 0.3 1.4 0.4
v -0.3 0.6 0.1
v 5.96046e-008 0.6 0.1
v -0.3 0.6 0
v 5.96046e-008 0.6 0
v 5.96046e-008 0.8 0
v 0.1 0.8 0
v 5.96046e-008 0.8 -0.3
v 0.1 0.8 -0.3
v 5.96046e-008 0.9 0.5
v 0.1 0.9 0.5
v 5.96046e-008 0.9 0.1
v 0.1 0.9 0.1
v -0.6 1 0.2
v -0.5 1 0.2
v -0.4 1 0.2
v -0.3 1 0.2
v -0.6 1 0.1
v -0.5 1 0.1
v -0.4 1 0.1
v -0.3 1 0.1
v 5.96046e-008 1 0.1
v 0.2 1 0.1
v 5.96046e-008 1 0
v 0.2 1 0
v -0.6 1 -0.1
v -0.5 1 -0.1
v -0.4 1 -0.1
v -0.3 1 -0.1
v -0.6 1 -0.2
v -0.5 1 -0.2
v -0.4 1 -0.2
v -0.3 1 -0.2
v -0.5 1.1 0.2
v -0.4 1.1 0.2
v -0.6 1.1 0.1
v -0.5 1.1 0.1
v -0.4 1.1 0.1
v -0.3 1.1 0.1
v -0.6 1.1 -0.1
v -0.5 1.1 -0.1
v -0.4 1.1 -0.1
v -0.3 1.1 -0.1
v -0.5 1.1 -0.2
v -0.4 1.1 -0.2
v -0.0999999 1.3 -0.1
v 5.96046e-008 1.3 -0.1
v 0.3 1.3 -0.1
v 0.4 1.3 -0.1
v -0.0999999 1.3 -0.2
v 5.96046e-008 1.3 -0.2
v 0.3 1.3 -0.2
v 0.4 1.3 -0.2
v -0.0999999 1.3 -0.5
v 5.96046e-008 1.3 -0.5
v 0.3 1.3 -0.5
v 0.4 1.3 -0.5
v -0.0999999 1.3 -0.6
v 5.96046e-008 1.3 -0.6
v 0.3 1.3 -0.6
v 0.4 1.3 -0.6
v 5.96046e-008 1.4 -0.1
v 0.3 1.4 -0.1
v -0.0999999 1.4 -0.2
v 5.96046e-008 1.4 -0.2
v 0.3 1.4 -0.2
v 0.4 1.4 -0.2
v -0.0999999 1.4 -0.5
v 5.96046e-008 1.4 -0.5
v 0.3 1.4 -0.5
v 0.4 1.4 -0.5
v 5.96046e-008 1.4 -0.6
v 0.3 1.4 -0.6
v -0.2 1.5 0.9
v -0.0999999 1.5 0.9
v 0.2 1.5 0.9
v 0.3 1.5 0.9
v -0.2 1.5 0.8
v -0.0999999 1.5 0.8
v 0.2 1.5 0.8
v 0.3 1.5 0.8
v -0.2 1.5 0.5
v -0.0999999 1.5 0.5
v 0.2 1.5 0.5
v 0.3 1.5 0.5
v -0.2 1.5 0.4
v -0.0999999 1.5 0.4
v 0.2 1.5 0.4
v 0.3 1.5 0.4
v -0.0999999 1.6 0.9
v 0.2 1.6 0.9
v -0.2 1.6 0.8
v -0.0999999 1.6 0.8
v 0.2 1.6 0.8
v 0.3 1.6 0.8
v -0.2 1.6 0.5
v -0.0999999 1.6 0.5
v 0.2 1.6 0.5
v 0.3 1.6 0.5
v -0.0999999 1.6 0.4
v 0.2 1.6 0.4

# faces
f 4/2/1 2/2/1 1/2/1
f 5/2/1 2/2/1 4/2/1
f 7/2/1 4/2/1 3/2/1
f 7/2/1 6/2/1 5/2/1
f 7/2/1 5/2/1 4/2/1
f 8/2/1 6/2/1 7/2/1
f 9/2/1 6/2/1 8/2/1
f 10/2/1 6/2/1 9/2/1
f 11/2/1 9/2/1 8/2/1
f 12/2/1 9/2/1 11/2/1
f 17/2/1 14/2/1 13/2/1
f 18/2/1 14/2/1 17/2/1
f 19/2/1 16/2/1 15/2/1
f 20/2/1 16/2/1 19/2/1
f 25/2/1 22/2/1 21/2/1
f 26/2/1 22/2/1 25/2/1
f 27/2/1 24/2/1 23/2/1
f 28/2/1 24/2/1 27/2/1
f 31/1/1 30/1/1 29/1/1
f 32/1/1 30/1/1 31/1/1
f 36/2/1 34/2/1 33/2/1
f 37/2/1 34/2/1 36/2/1
f 39/2/1 36/2/1 35/2/1
f 39/2/1 38/2/1 37/2/1
f 39/2/1 37/2/1 36/2/1
f 40/2/1 38/2/1 39/2/1
f 41/2/1 38/2/1 40/2/1
f 42/2/1 38/2/1 41/2/1
f 43/2/1 41/2/1 40/2/1
f 44/2/1 41/2/1 43/2/1
f 48/2/1 46/2/1 45/2/1
f 49/2/1 46/2/1 48/2/1
f 55/2/1 48/2/1 47/2/1
f 55/2/1 49/2/1 48/2/1
f 55/2/1 50/2/1 49/2/1
f 56/2/1 50/2/1 55/2/1
f 57/2/1 50/2/1 56/2/1
f 58/2/1 50/2/1 57/2/1
f 59/2/1 52/2/1 51/2/1
f 60/2/1 52/2/1 59/2/1
f 61/2/1 54/2/1 53/2/1
f 62/2/1 54/2/1 61/2/1
f 63/2/1 57/2/1 56/2/1
f 64/2/1 57/2/1 63/2/1
f 69/2/1 66/2/1 65/2/1
f 70/2/1 66/2/1 69/2/1
f 71/2/1 68/2/1 67/2/1
f 72/2/1 68/2/1 71/2/1
f 75/1/1 74/1/1 73/1/1
f 76/1/1 74/1/1 75/1/1
f 79/1/1 78/1/1 77/1/1
f 82/1/1 79/1/1 77/1/1
f 82/1/1 80/1/1 79/1/1
f 83/1/1 80/1/1 82/1/1
f 84/1/1 80/1/1 83/1/1
f 85/1/1 82/1/1 81/1/1
f 85/1/1 83/1/1 82/1/1
f 86/1/1 83/1/1 85/1/1
f 87/1/1 83/1/1 86/1/1
f 88/1/1 83/1/1 87/1/1
f 91/1/1 80/1/1 84/1/1
f 92/1/1 80/1/1 91/1/1
f 95/1/1 85/1/1 81/1/1
f 97/2/1 90/2/1 89/2/1
f 98/2/1 90/2/1 97/2/1
f 99/2/1 94/2/1 93/2/1
f 100/2/1 94/2/1 99/2/1
f 101/1/1 96/1/1 95/1/1
f 101/1/1 95/1/1 81/1/1
f 102/1/1 96/1/1 101/1/1
f 107/2/1 104/2/1 103/2/1
f 108/2/1 104/2/1 107/2/1
f 109/2/1 106/2/1 105/2/1
f 110/2/1 106/2/1 109/2/1
f 111/2/2 112/2/2 115/2/2
f 115/2/2 112/2/2 116/2/2
f 113/2/2 114/2/2 117/2/2
f 117/2/2 114/2/2 118/2/2
f 119/2/2 120/2/2 123/2/2
f 123/2/2 120/2/2 124/2/2
f 121/2/2 122/2/2 125/2/2
f 125/2/2 122/2/2 126/2/2
f 127/1/2 128/1/2 129/1/2
f 129/1/2 128/1/2 130/1/2
f 129/2/2 130/2/2 133/2/2
f 130/2/2 131/2/2 133/2/2
f 133/2/2 131/2/2 134/2/2
f 132/2/2 133/2/2 136/2/2
f 134/2/2 135/2/2 136/2/2
f 133/2/2 134/2/2 136/2/2
f 136/2/2 135/2/2 137/2/2
f 137/2/2 135/2/2 138/2/2
f 138/2/2 135/2/2 139/2/2
f 137/2/2 138/2/2 140/2/2
f 140/2/2 138/2/2 141/2/2
f 142/1/2 143/1/2 146/1/2
f 146/1/2 143/1/2 147/1/2
f 144/1/2 145/1/2 148/1/2
f 148/1/2 145/1/2 149/1/2
f 147/1/2 143/1/2 150/1/2
f 150/1/2 143/1/2 151/1/2
f 144/1/2 148/1/2 152/1/2
f 144/1/2 152/1/2 154/1/2
f 152/1/2 153/1/2 154/1/2
f 154/1/2 153/1/2 155/1/2
f 156/1/2 157/1/2 158/1/2
f 158/1/2 157/1/2 159/1/2
f 160/2/2 161/2/2 164/2/2
f 164/2/2 161/2/2 165/2/2
f 162/2/2 163/2/2 166/2/2
f 166/2/2 163/2/2 167/2/2
f 168/2/2 169/2/2 172/2/2
f 172/2/2 169/2/2 173/2/2
f 170/2/2 171/2/2 174/2/2
f 174/2/2 171/2/2 175/2/2
f 176/2/2 177/2/2 180/2/2
f 180/2/2 177/2/2 181/2/2
f 178/2/2 179/2/2 182/2/2
f 182/2/2 179/2/2 183/2/2
f 184/2/2 185/2/2 191/2/2
f 191/2/2 185/2/2 192/2/2
f 186/2/2 187/2/2 194/2/2
f 194/2/2 187/2/2 195/2/2
f 188/2/2 189/2/2 196/2/2
f 196/2/2 189/2/2 197/2/2
f 192/2/2 193/2/2 198/2/2
f 190/2/2 191/2/2 198/2/2
f 191/2/2 192/2/2 198/2/2
f 198/2/2 193/2/2 199/2/2
f 199/2/2 193/2/2 200/2/2
f 200/2/2 193/2/2 201/2/2
f 199/2/2 200/2/2 202/2/2
f 202/2/2 200/2/2 203/2/2
f 204/2/2 205/2/2 207/2/2
f 207/2/2 205/2/2 208/2/2
f 206/2/2 207/2/2 210/2/2
f 208/2/2 209/2/2 210/2/2
f 207/2/2 208/2/2 210/2/2
f 210/2/2 209/2/2 211/2/2
f 211/2/2 209/2/2 212/2/2
f 212/2/2 209/2/2 213/2/2
f 211/2/2 212/2/2 214/2/2
f 214/2/2 212/2/2 215/2/2
f 219/2/3 217/2/3 216/2/3
f 220/2/3 217/2/3 219/2/3
f 222/2/3 219/2/3 218/2/3
f 222/2/3 221/2/3 220/2/3
f 222/2/3 220/2/3 219/2/3
f 223/2/3 221/2/3 222/2/3
f 224/2/3 221/2/3 223/2/3
f 225/2/3 221/2/3 224/2/3
f 226/2/3 224/2/3 223/2/3
f 227/2/3 224/2/3 226/2/3
f 232/2/3 229/2/3 228/2/3
f 233/2/3 229/2/3 232/2/3
f 234/2/3 231/2/3 230/2/3
f 235/2/3 231/2/3 234/2/3
f 240/2/3 237/2/3 236/2/3
f 241/2/3 237/2/3 240/2/3
f 242/2/3 239/2/3 238/2/3
f 243/2/3 239/2/3 242/2/3
f 246/1/3 245/1/3 244/1/3
f 247/1/3 245/1/3 246/1/3
f 251/2/3 249/2/3 248/2/3
f 252/2/3 249/2/3 251/2/3
f 254/2/3 251/2/3 250/2/3
f 254/2/3 253/2/3 252/2/3
f 254/2/3 252/2/3 251/2/3
f 255/2/3 253/2/3 254/2/3
f 256/2/3 253/2/3 255/2/3
f 257/2/3 253/2/3 256/2/3
f 258/2/3 256/2/3 255/2/3
f 259/2/3 256/2/3 258/2/3
f 264/2/3 261/2/3 260/2/3
f 265/2/3 261/2/3 264/2/3
f 266/2/3 263/2/3 262/2/3
f 267/2/3 263/2/3 266/2/3
f 273/1/3 269/1/3 268/1/3
f 274/2/3 270/2/3 269/2/3
f 274/1/3 269/1/3 273/1/3
f 275/2/3 270/2/3 274/2/3
f 276/2/3 272/2/3 271/2/3
f 277/2/3 272/2/3 276/2/3
f 279/1/3 273/1/3 268/1/3
f 280/1/3 273/1/3 279/1/3
f 284/1/3 279/1/3 278/1/3
f 284/1/3 280/1/3 279/1/3
f 284/1/3 281/1/3 280/1/3
f 285/1/3 283/1/3 282/1/3
f 286/1/3 284/1/3 278/1/3
f 286/1/3 285/1/3 284/1/3
f 287/1/3 283/1/3 285/1/3
f 287/1/3 285/1/3 286/1/3
f 291/2/3 289/2/3 288/2/3
f 292/2/3 289/2/3 291/2/3
f 294/2/3 291/2/3 290/2/3
f 294/2/3 293/2/3 292/2/3
f 294/2/3 292/2/3 291/2/3
f 295/2/3 293/2/3 294/2/3
f 296/2/3 293/2/3 295/2/3
f 297/2/3 293/2/3 296/2/3
f 298/2/3 296/2/3 295/2/3
f 299/2/3 296/2/3 298/2/3
f 304/2/3 301/2/3 300/2/3
f 305/2/3 301/2/3 304/2/3
f 306/2/3 303/2/3 302/2/3
f 307/2/3 303/2/3 306/2/3
f 312/2/3 309/2/3 308/2/3
f 313/2/3 309/2/3 312/2/3
f 314/2/3 311/2/3 310/2/3
f 315/2/3 311/2/3 314/2/3
f 318/1/3 317/1/3 316/1/3
f 319/1/3 317/1/3 318/1/3
f 320/2/4 321/2/4 324/2/4
f 324/2/4 321/2/4 325/2/4
f 322/2/4 323/2/4 326/2/4
f 326/2/4 323/2/4 327/2/4
f 328/1/4 329/1/4 330/1/4
f 330/1/4 329/1/4 331/1/4
f 332/2/4 333/2/4 336/2/4
f 336/2/4 333/2/4 337/2/4
f 334/2/4 335/2/4 338/2/4
f 338/2/4 335/2/4 339/2/4
f 340/2/4 341/2/4 343/2/4
f 343/2/4 341/2/4 344/2/4
f 342/2/4 343/2/4 347/2/4
f 344/2/4 345/2/4 347/2/4
f 343/2/4 344/2/4 347/2/4
f 346/1/4 347/1/4 348/1/4
f 347/2/4 345/2/4 349/2/4
f 348/1/4 347/1/4 349/1/4
f 349/2/4 345/2/4 350/2/4
f 350/2/4 345/2/4 351/2/4
f 351/2/4 345/2/4 352/2/4
f 352/2/4 345/2/4 353/2/4
f 351/2/4 352/2/4 354/2/4
f 354/2/4 352/2/4 355/2/4
f 356/1/4 357/1/4 358/1/4
f 358/1/4 357/1/4 359/1/4
f 356/1/4 358/1/4 361/1/4
f 361/1/4 358/1/4 362/1/4
f 362/1/4 363/1/4 366/1/4
f 360/1/4 361/1/4 366/1/4
f 361/1/4 362/1/4 366/1/4
f 364/1/4 365/1/4 367/1/4
f 360/1/4 366/1/4 368/1/4
f 366/1/4 367/1/4 368/1/4
f 367/1/4 365/1/4 369/1/4
f 368/1/4 367/1/4 369/1/4
f 370/2/4 371/2/4 374/2/4
f 374/2/4 371/2/4 375/2/4
f 372/2/4 373/2/4 376/2/4
f 376/2/4 373/2/4 377/2/4
f 378/2/4 379/2/4 382/2/4
f 382/2/4 379/2/4 383/2/4
f 380/2/4 381/2/4 384/2/4
f 384/2/4 381/2/4 385/2/4
f 386/2/4 387/2/4 389/2/4
f 389/2/4 387/2/4 390/2/4
f 388/2/4 389/2/4 392/2/4
f 390/2/4 391/2/4 392/2/4
f 389/2/4 390/2/4 392/2/4
f 392/2/4 391/2/4 393/2/4
f 393/2/4 391/2/4 394/2/4
f 394/2/4 391/2/4 395/2/4
f 393/2/4 394/2/4 396/2/4
f 396/2/4 394/2/4 397/2/4
f 398/1/4 399/1/4 400/1/4
f 400/1/4 399/1/4 401/1/4
f 402/2/4 403/2/4 406/2/4
f 406/2/4 403/2/4 407/2/4
f 404/2/4 405/2/4 408/2/4
f 408/2/4 405/2/4 409/2/4
f 410/2/4 411/2/4 414/2/4
f 414/2/4 411/2/4 415/2/4
f 412/2/4 413/2/4 416/2/4
f 416/2/4 413/2/4 417/2/4
f 418/2/4 419/2/4 421/2/4
f 421/2/4 419/2/4 422/2/4
f 420/2/4 421/2/4 424/2/4
f 422/2/4 423/2/4 424/2/4
f 421/2/4 422/2/4 424/2/4
f 424/2/4 423/2/4 425/2/4
f 425/2/4 423/2/4 426/2/4
f 426/2/4 423/2/4 427/2/4
f 425/2/4 426/2/4 428/2/4
f 428/2/4 426/2/4 429/2/4
f 432/1/5 431/1/5 430/1/5
f 433/1/5 431/1/5 432/1/5
f 436/1/5 435/1/5 434/1/5
f 437/1/5 435/1/5 436/1/5
f 440/1/5 439/1/5 438/1/5
f 441/1/5 439/1/5 440/1/5
f 447/2/5 445/2/5 444/2/5
f 448/2/5 445/2/5 447/2/5
f 449/1/5 443/1/5 442/1/5
f 450/1/5 443/1/5 449/1/5
f 451/2/5 448/2/5 447/2/5
f 451/2/5 447/2/5 446/2/5
f 453/2/5 451/2/5 446/2/5
f 453/2/5 452/2/5 451/2/5
f 454/2/5 452/2/5 453/2/5
f 455/2/5 452/2/5 454/2/5
f 456/2/5 452/2/5 455/2/5
f 457/2/5 455/2/5 454/2/5
f 458/2/5 455/2/5 457/2/5
f 463/2/5 460/2/5 459/2/5
f 464/2/5 460/2/5 463/2/5
f 465/2/5 462/2/5 461/2/5
f 466/2/5 462/2/5 465/2/5
f 471/2/5 468/2/5 467/2/5
f 472/2/5 468/2/5 471/2/5
f 473/2/5 470/2/5 469/2/5
f 474/2/5 470/2/5 473/2/5
f 478/2/5 476/2/5 475/2/5
f 479/2/5 476/2/5 478/2/5
f 481/2/5 478/2/5 477/2/5
f 481/2/5 480/2/5 479/2/5
f 481/2/5 479/2/5 478/2/5
f 482/2/5 480/2/5 481/2/5
f 483/2/5 481/2/5 477/2/5
f 484/2/5 480/2/5 482/2/5
f 485/2/5 483/2/5 477/2/5
f 485/2/5 484/2/5 483/2/5
f 486/2/5 484/2/5 485/2/5
f 487/2/5 480/2/5 484/2/5
f 487/2/5 484/2/5 486/2/5
f 488/2/5 480/2/5 487/2/5
f 489/2/5 487/2/5 486/2/5
f 490/2/5 487/2/5 489/2/5
f 493/1/5 492/1/5 491/1/5
f 494/1/5 492/1/5 493/1/5
f 499/2/5 496/2/5 495/2/5
f 500/2/5 496/2/5 499/2/5
f 501/2/5 498/2/5 497/2/5
f 502/2/5 498/2/5 501/2/5
f 507/2/5 504/2/5 503/2/5
f 508/2/5 504/2/5 507/2/5
f 509/2/5 506/2/5 505/2/5
f 510/2/5 506/2/5 509/2/5
f 514/2/5 512/2/5 511/2/5
f 515/2/5 512/2/5 514/2/5
f 517/2/5 514/2/5 513/2/5
f 517/2/5 516/2/5 515/2/5
f 517/2/5 515/2/5 514/2/5
f 518/2/5 516/2/5 517/2/5
f 519/2/5 517/2/5 513/2/5
f 520/2/5 517/2/5 519/2/5
f 521/2/5 516/2/5 518/2/5
f 522/2/5 516/2/5 521/2/5
f 523/2/5 517/2/5 520/2/5
f 524/2/5 517/2/5 523/2/5
f 525/2/5 521/2/5 518/2/5
f 526/2/5 521/2/5 525/2/5
f 531/2/5 528/2/5 527/2/5
f 532/2/5 528/2/5 531/2/5
f 533/2/5 530/2/5 529/2/5
f 534/2/5 530/2/5 533/2/5
f 539/2/5 536/2/5 535/2/5
f 540/2/5 536/2/5 539/2/5
f 541/2/5 538/2/5 537/2/5
f 542/2/5 538/2/5 541/2/5
f 543/1/6 544/1/6 545/1/6
f 545/1/6 544/1/6 546/1/6
f 547/1/6 548/1/6 549/1/6
f 549/1/6 548/1/6 550/1/6
f 551/1/6 552/1/6 553/1/6
f 553/1/6 552/1/6 554/1/6
f 555/2/6 556/2/6 559/2/6
f 559/2/6 556/2/6 560/2/6
f 557/2/6 558/2/6 561/2/6
f 561/2/6 558/2/6 562/2/6
f 563/1/6 564/1/6 565/1/6
f 565/1/6 564/1/6 566/1/6
f 567/2/6 568/2/6 571/2/6
f 571/2/6 568/2/6 572/2/6
f 569/2/6 570/2/6 573/2/6
f 573/2/6 570/2/6 574/2/6
f 575/2/6 576/2/6 578/2/6
f 578/2/6 576/2/6 579/2/6
f 577/2/6 578/2/6 581/2/6
f 579/2/6 580/2/6 581/2/6
f 578/2/6 579/2/6 581/2/6
f 581/2/6 580/2/6 582/2/6
f 582/2/6 580/2/6 583/2/6
f 583/2/6 580/2/6 584/2/6
f 582/2/6 583/2/6 585/2/6
f 585/2/6 583/2/6 586/2/6
f 587/2/6 588/2/6 591/2/6
f 591/2/6 588/2/6 592/2/6
f 589/2/6 590/2/6 593/2/6
f 593/2/6 590/2/6 594/2/6
f 595/2/6 596/2/6 599/2/6
f 599/2/6 596/2/6 600/2/6
f 597/2/6 598/2/6 601/2/6
f 601/2/6 598/2/6 602/2/6
f 603/2/6 604/2/6 606/2/6
f 606/2/6 604/2/6 607/2/6
f 605/2/6 606/2/6 609/2/6
f 607/2/6 608/2/6 609/2/6
f 606/2/6 607/2/6 609/2/6
f 609/2/6 608/2/6 610/2/6
f 610/2/6 608/2/6 611/2/6
f 611/2/6 608/2/6 612/2/6
f 610/2/6 611/2/6 613/2/6
f 613/2/6 611/2/6 614/2/6
f 615/2/6 616/2/6 619/2/6
f 619/2/6 616/2/6 620/2/6
f 617/2/6 618/2/6 621/2/6
f 621/2/6 618/2/6 622/2/6
f 623/2/6 624/2/6 627/2/6
f 627/2/6 624/2/6 628/2/6
f 625/2/6 626/2/6 629/2/6
f 629/2/6 626/2/6 630/2/6
f 631/2/6 632/2/6 634/2/6
f 634/2/6 632/2/6 635/2/6
f 633/2/6 634/2/6 637/2/6
f 635/2/6 636/2/6 637/2/6
f 634/2/6 635/2/6 637/2/6
f 637/2/6 636/2/6 638/2/6
f 638/2/6 636/2/6 639/2/6
f 639/2/6 636/2/6 640/2/6
f 638/2/6 639/2/6 641/2/6
f 641/2/6 639/2/6 642/2/6
